<svg xmlns="http://www.w3.org/2000/svg" version="1.1" xmlns:xlink="http://www.w3.org/1999/xlink" width="1000" height="1000"><style>
    #light-icon {
      display: inline;
    }
    #dark-icon {
      display: none;
    }

    @media (prefers-color-scheme: dark) {
      #light-icon {
        display: none;
      }
      #dark-icon {
        display: inline;
      }
    }
  </style><g id="light-icon"><svg xmlns="http://www.w3.org/2000/svg" version="1.1" xmlns:xlink="http://www.w3.org/1999/xlink" width="1000" height="1000"><g><g transform="matrix(13.88888888888889,0,0,13.88888888888889,0,0)"><svg xmlns="http://www.w3.org/2000/svg" version="1.1" xmlns:xlink="http://www.w3.org/1999/xlink" width="72" height="72"><svg width="72" height="72" viewBox="0 0 72 72" fill="none" xmlns="http://www.w3.org/2000/svg">
<path d="M24 14.4C24 17.7603 24 19.4405 24.654 20.7239C25.2292 21.8529 26.1471 22.7708 27.2761 23.346C28.5595 24 30.2397 24 33.6 24H38.4C41.7603 24 43.4405 24 44.7239 24.654C45.8529 25.2292 46.7708 26.1471 47.346 27.2761C48 28.5595 48 30.2397 48 33.6V38.4C48 41.7603 48 43.4405 48.654 44.7239C49.2292 45.8529 50.1471 46.7708 51.2761 47.346C52.5595 48 54.2397 48 57.6 48H62.4C65.7603 48 67.4405 48 68.7239 48.654C69.8529 49.2292 70.7708 50.1471 71.346 51.2761C72 52.5595 72 54.2397 72 57.6V62.4C72 65.7603 72 67.4405 71.346 68.7239C70.7708 69.8529 69.8529 70.7708 68.7239 71.346C67.4405 72 65.7603 72 62.4 72H9.6C6.23968 72 4.55953 72 3.27606 71.346C2.14708 70.7708 1.2292 69.8529 0.653961 68.7239C0 67.4405 0 65.7603 0 62.4V9.6C0 6.23968 0 4.55953 0.653961 3.27606C1.2292 2.14708 2.14708 1.2292 3.27606 0.653961C4.55953 0 6.23969 0 9.6 0H14.4C17.7603 0 19.4405 0 20.7239 0.653961C21.8529 1.2292 22.7708 2.14708 23.346 3.27606C24 4.55953 24 6.23969 24 9.6V14.4Z" fill="#193CB8"></path>
</svg></svg></g></g></svg></g><g id="dark-icon"><svg xmlns="http://www.w3.org/2000/svg" version="1.1" xmlns:xlink="http://www.w3.org/1999/xlink" width="1000" height="1000"><g clip-path="url(#SvgjsClipPath1039)"><rect width="1000" height="1000" fill="#ffffff"></rect><g transform="matrix(9.722222222222221,0,0,9.722222222222221,150,150)"><svg xmlns="http://www.w3.org/2000/svg" version="1.1" xmlns:xlink="http://www.w3.org/1999/xlink" width="72" height="72"><svg width="72" height="72" viewBox="0 0 72 72" fill="none" xmlns="http://www.w3.org/2000/svg">
<path d="M24 14.4C24 17.7603 24 19.4405 24.654 20.7239C25.2292 21.8529 26.1471 22.7708 27.2761 23.346C28.5595 24 30.2397 24 33.6 24H38.4C41.7603 24 43.4405 24 44.7239 24.654C45.8529 25.2292 46.7708 26.1471 47.346 27.2761C48 28.5595 48 30.2397 48 33.6V38.4C48 41.7603 48 43.4405 48.654 44.7239C49.2292 45.8529 50.1471 46.7708 51.2761 47.346C52.5595 48 54.2397 48 57.6 48H62.4C65.7603 48 67.4405 48 68.7239 48.654C69.8529 49.2292 70.7708 50.1471 71.346 51.2761C72 52.5595 72 54.2397 72 57.6V62.4C72 65.7603 72 67.4405 71.346 68.7239C70.7708 69.8529 69.8529 70.7708 68.7239 71.346C67.4405 72 65.7603 72 62.4 72H9.6C6.23968 72 4.55953 72 3.27606 71.346C2.14708 70.7708 1.2292 69.8529 0.653961 68.7239C0 67.4405 0 65.7603 0 62.4V9.6C0 6.23968 0 4.55953 0.653961 3.27606C1.2292 2.14708 2.14708 1.2292 3.27606 0.653961C4.55953 0 6.23969 0 9.6 0H14.4C17.7603 0 19.4405 0 20.7239 0.653961C21.8529 1.2292 22.7708 2.14708 23.346 3.27606C24 4.55953 24 6.23969 24 9.6V14.4Z" fill="#193CB8"></path>
</svg></svg></g></g><defs><clipPath id="SvgjsClipPath1039"><rect width="1000" height="1000" x="0" y="0" rx="200" ry="200"></rect></clipPath></defs></svg></g></svg>