<svg width="62" height="68" viewBox="0 0 62 68" fill="none" xmlns="http://www.w3.org/2000/svg">
<path d="M21.7684 17.2267C21.7684 19.1308 21.7684 20.0829 22.1406 20.8102C22.468 21.45 22.9905 21.9701 23.6331 22.2961C24.3637 22.6667 25.32 22.6667 27.2328 22.6667H36.9706C38.8833 22.6667 39.8397 22.6667 40.5703 23.0372C41.2129 23.3632 41.7354 23.8833 42.0628 24.5231C42.435 25.2504 42.435 26.2025 42.435 28.1067V39.8933C42.435 41.7975 42.435 42.7496 42.8073 43.4769C43.1347 44.1167 43.6572 44.6368 44.2998 44.9628C45.0303 45.3333 45.9867 45.3333 47.8994 45.3333H56.5356C58.4483 45.3333 59.4047 45.3333 60.1352 45.7039C60.7779 46.0299 61.3003 46.55 61.6278 47.1898C62 47.9171 62 48.8692 62 50.7733V62.56C62 64.4642 62 65.4163 61.6278 66.1436C61.3003 66.7833 60.7779 67.3034 60.1352 67.6294C59.4047 68 58.4483 68 56.5356 68H5.46441C3.55169 68 2.59532 68 1.86476 67.6294C1.22214 67.3034 0.699672 66.7833 0.37224 66.1436C0 65.4163 0 64.4642 0 62.56V5.44C0 3.53582 0 2.58373 0.37224 1.85643C0.699672 1.21668 1.22214 0.696547 1.86476 0.370578C2.59532 0 3.55169 0 5.46441 0H16.304C18.2167 0 19.173 0 19.9036 0.370578C20.5462 0.696547 21.0687 1.21668 21.3961 1.85643C21.7684 2.58373 21.7684 3.53582 21.7684 5.44V17.2267Z" fill="#193CB8"/>
</svg>
