<svg width="60" height="72" viewBox="0 0 60 72" fill="none" xmlns="http://www.w3.org/2000/svg">
<path d="M20 14.4C20 17.7603 20 19.4405 20.654 20.7239C21.2292 21.8529 22.1471 22.7708 23.2761 23.346C24.5595 24 26.2397 24 29.6 24H30.4C33.7603 24 35.4405 24 36.7239 24.654C37.8529 25.2292 38.7708 26.1471 39.346 27.2761C40 28.5595 40 30.2397 40 33.6V38.4C40 41.7603 40 43.4405 40.654 44.7239C41.2292 45.8529 42.1471 46.7708 43.2761 47.346C44.5595 48 46.2397 48 49.6 48H50.4C53.7603 48 55.4405 48 56.7239 48.654C57.8529 49.2292 58.7708 50.1471 59.346 51.2761C60 52.5595 60 54.2397 60 57.6V62.4C60 65.7603 60 67.4405 59.346 68.7239C58.7708 69.8529 57.8529 70.7708 56.7239 71.346C55.4405 72 53.7603 72 50.4 72H9.6C6.23968 72 4.55953 72 3.27606 71.346C2.14708 70.7708 1.2292 69.8529 0.653961 68.7239C0 67.4405 0 65.7603 0 62.4V9.6C0 6.23968 0 4.55953 0.653961 3.27606C1.2292 2.14708 2.14708 1.2292 3.27606 0.653961C4.55953 0 6.23969 0 9.6 0H10.4C13.7603 0 15.4405 0 16.7239 0.653961C17.8529 1.2292 18.7708 2.14708 19.346 3.27606C20 4.55953 20 6.23969 20 9.6V14.4Z" fill="#193CB8"/>
</svg>
